<?xml version="1.0" encoding="UTF-8" standalone="no"?>
<svg id="Layer_1" height="326.12619" viewBox="0 0 303 326.12619" width="303" xmlns="http://www.w3.org/2000/svg">
   <path id="path8" d="m284.32238 120.25253a143.12067 143.12067 0 0 0-27.25188-42.907212l-.70867-.773103-5.95934-45.580858-28.63702-11.596543-6.44252 26.18886-3.51118-1.546206c-1.19186-.547614-2.15824-.966378-3.0602-1.320717a149.62762 149.62762 0 0 0-29.8611-8.987321l-2.54479-.483189-.64426-25.351331h-48.5122l-.61204 25.351331-2.5448.483189a149.36992 149.36992 0 0 0-32.95351 10.308038l-3.478963 1.578419-6.442524-26.06001-28.637019 11.43548-5.927122 45.548645-.708678.773103a143.63607 143.63607 0 0 0 105.592966 240.918185h.38655a143.53944 143.53944 0 0 0 132.4583-197.97876z" fill="#fff" stroke-width="3.22126198"/>
   <path id="path10" d="m289.79853 117.96543a149.11222 149.11222 0 0 0-27.79949-44.03465l-6.21704-47.062638-38.10753-15.494272-6.44252 25.995586h-.22549a156.52112 156.52112 0 0 0-28.99136-8.922896l-.51541-26.44656h-60.04432l-.64425 26.382135a154.62058 154.62058 0 0 0-29.184635 9.051746l-6.442524-25.770091-38.010892 15.172139-4.316491 31.278455v0l-1.868332 15.784183a149.53098 149.53098 0 0 0 110.489284 250.227633h.41877a149.40213 149.40213 0 0 0 137.90223-206.16077zm-7.11899 111.64894a142.50863 142.50863 0 0 1-130.81546 87.32842h-.38655a142.34757 142.34757 0 0 1-104.626587-238.759944l.998591-1.063017 5.862697-45.097668 26.543199-10.69459 6.442524 26.124435 4.896318-2.190458a146.7607 146.7607 0 0 1 32.663598-10.211401l3.54339-.676465.64425-25.158052h46.03183l.64426 25.12584 3.54338.676465a148.88673 148.88673 0 0 1 29.63562 8.85847l3.02798 1.320718 4.92853 2.190458 6.44253-26.253285 26.5432 10.82344 5.89491 45.097668.96638 1.063017a142.15429 142.15429 0 0 1 26.57541 151.399319z" fill="#0b0204" stroke-width="3.22126198"/>
   <path id="path12" d="m84.217582 252.35648c0 0-12.369646-11.98309-13.271599-13.20717l-4.219853 4.05879 3.221262 3.54339-14.62453 16.10631-3.060199-3.22126-4.05879 3.76887a129.97792 129.97792 0 0 0 11.113354 11.49991l3.672239-4.02658-1.707269-1.51399 6.184823-6.82908 2.802498 2.5448-4.187641 15.75197c2.415947 2.15824 8.310856 6.18482 8.310856 6.18482l3.221262-4.63861-3.221262-2.5448 2.57701-10.27583a9.663786 9.663786 0 0 0 5.443933.41877 9.0517463 9.0517463 0 0 0  4.509766-2.83471 7.8598793 7.8598793 0 0 0  2.190459-7.08678 14.076915 14.076915 0 0 0-4.896319-7.69882zm-4.316491 8.82626c-1.739481 1.93276-3.929939 1.73948-6.442524-.64425l-2.512584-2.12603 5.186232-5.70164 2.899136 2.64144a5.1540192 5.1540192 0 0 1 1.803906 2.89913 3.221262 3.221262 0 0 1-.934166 2.93135z" fill="#0b0204" stroke-width="3.22126198"/>
   <path id="path14" d="m118.2019 277.77224l2.35152.83753-7.40891 5.95933-1.83611-9.27723 2.09382.74089 1.90054-5.31508a97.926365 97.926365 0 0 1-14.3024-6.6358l-2.480375 5.08959 3.865515 2.44816 4.28428 15.8164-3.02799 8.47192-4.187639-1.57842-2.09382 5.21844a129.23703 129.23703 0 0 0 16.976049 6.05597l1.61063-5.41172-4.15543-1.48178 2.99578-8.37528 12.88505-9.66378 4.38091.64425 1.41736-5.50836c-5.83049-1.0308-13.49709-3.22126-13.49709-3.22126z" fill="#0b0204" stroke-width="3.22126198"/>
   <path id="path16" d="m170.8051 288.91781l5.63721-.77311-1.73948-13.30381a125.37152 125.37152 0 0 1-29.95773 2.2871l.38655 13.30381h5.63721v-7.21563h5.1218l1.61063 21.58246-4.63861.35434v5.63721a147.85593 147.85593 0 0 0 18.58668-1.48178l-.64426-5.57279-4.67083.48319-1.5462-21.29254 5.08959-.67647z" fill="#0b0204" stroke-width="3.22126198"/>
   <path id="path18" d="m221.89432 284.44025l-15.81639-16.10631 4.12321-2.89913-2.96356-4.73526a125.27488 125.27488 0 0 1-19.52085 9.66379l2.12603 5.44393 4.70305-1.90054 4.38091 22.54883-3.22126 1.38514 1.86833 5.02517c3.67224-1.19187 11.40327-4.63862 11.40327-4.63862l-2.44816-4.76746-1.90054.83752-.99859-5.8949 7.6666-3.92994 3.8333 4.21985-2.60922 1.51399 2.70586 4.83189c0 0 8.40749-4.57419 12.88505-7.76324l-3.22126-4.76746zm-19.32757-1.22408l-1.93276-10.27582 7.05457 7.63439z" fill="#0b0204" stroke-width="3.22126198"/>
   <path id="path20" d="m250.177 253.70941a9.663786 9.663786 0 0 0-6.44252-2.54479 19.102084 19.102084 0 0 0-7.79545 2.12603l-1.32072.64425c-1.28851.61204-2.2871 1.06302-2.99578 1.32072a5.6372085 5.6372085 0 0 1-1.99718.38655 2.9635611 2.9635611 0 0 1-1.8039-.70868 2.4481591 2.4481591 0 0 1-.83753-2.02939 3.7044513 3.7044513 0 0 1  .96638-2.31931 4.5097668 4.5097668 0 0 1  3.02798-1.61063 6.442524 6.442524 0 0 1  3.8333 1.22408l3.73667-4.31649-7.50554-6.44253-3.73667 4.31649 1.93276 1.54621a6.9257133 6.9257133 0 0 0-3.54339.45098 8.2464308 8.2464308 0 0 0-2.93135 2.19045 9.1161715 9.1161715 0 0 0-2.0616 4.21986 8.7618327 8.7618327 0 0 0  .38655 4.63861 9.1483841 9.1483841 0 0 0  2.77028 3.96216 8.4074939 8.4074939 0 0 0  5.8627 2.09382 20.390589 20.390589 0 0 0  8.27864-2.35152 12.885048 12.885048 0 0 1  4.60641-1.48178 3.897727 3.897727 0 0 1  2.89913.90195 3.221262 3.221262 0 0 1  1.22408 2.44816 3.5756008 3.5756008 0 0 1-.90195 2.67365 4.5419794 4.5419794 0 0 1-3.54339 1.73948 7.4733279 7.4733279 0 0 1-4.41313-1.80391l-3.67224 4.38092 7.79546 7.02235 4.31649-4.02658-1.93276-1.73948a7.8598793 7.8598793 0 0 0 6.95793-2.99577 9.663786 9.663786 0 0 0  2.64143-7.15121 9.8570618 9.8570618 0 0 0-3.80109-6.76465z" fill="#0b0204" stroke-width="3.22126198"/>
   <path id="path22" d="m239.28914 214.60329a96.63786 96.63786 0 1 0-53.85951 50.25169 95.89697 95.89697 0 0 0  53.85951-50.25169zm-6.44253-2.96356a92.192519 92.192519 0 0 1-10.01812 16.87941l-3.22126-1.2885a57.499527 57.499527 0 0 1-21.29255-16.5895l10.34026-9.66379-8.79405-12.88504 7.24784-9.66379h33.56555a89.100107 89.100107 0 0 1-7.9243 32.95351zm-62.71797 16.65393l-8.98732 14.14134h-19.32757l-9.01954-14.14134 7.1512-19.58528-11.78981 13.787-24.4816-22.54883 8.18201-12.01531-8.14979-11.01671 5.70163-10.2114.80532-16.10631 1.32071-26.57542 16.10631 14.07692h47.61026l16.10631-14.07692 2.12603 42.74615 5.66942 10.2114-8.05315 10.82344 4.28427 6.44253 3.89773 5.73384-24.48159 22.54884-11.78982-13.787zm-22.25892-97.44318v-14.46347h7.1512v14.46347zm92.80456 40.26578h-36.43247l-3.60782-6.44253v0l-1.35293-26.92975a57.274039 57.274039 0 0 1 23.45079-16.71835 90.195336 90.195336 0 0 1  17.94243 50.15505zm-120.63626-79.983941a89.712147 89.712147 0 0 1 31.43951-5.766059 90.002061 90.002061 0 0 1  66.48685 29.70004 64.682941 64.682941 0 0 0-19.32757 12.59513l-.93417-18.97323-21.22811 18.45783v-26.06001h-7.08678v29.6034h-7.08678v-21.55025h-7.21562v-14.366825h-7.15121v14.366825h-7.21562v21.55025h-7.21563v-29.57119h-7.18341v26.09222l-21.22812-18.52225-.93417 18.94102a64.779579 64.779579 0 0 0-17.878-12.01531l-1.288505-.54761a88.906832 88.906832 0 0 1 35.047335-23.933981zm-49.832927 46.676091a89.647722 89.647722 0 0 1 10.018124-16.91163c1.030804.38655 2.061608.80532 3.221262 1.28851a57.04855 57.04855 0 0 1 20.326161 15.39763l-1.32072 26.96196v0l-3.640021 6.44253h-36.529111a88.939044 88.939044 0 0 1 7.924305-33.179zm-7.924305 40.36241h33.533337l7.247835 9.66379-8.794041 12.88504 10.340251 9.66379a57.112976 57.112976 0 0 1-24.417165 17.91022 90.195336 90.195336 0 0 1-17.910217-50.18727zm120.604052 79.98393a88.488068 88.488068 0 0 1-68.22633-2.25488 88.230367 88.230367 0 0 1-29.700037-21.74352 64.135327 64.135327 0 0 0  24.932567-18.81217l15.13993 14.07692v0l12.69177 20.19731h27.47737l12.88505-20.19731v0l15.13993-14.07692a64.42524 64.42524 0 0 0 23.61185 18.26456l1.32072.54761a88.971257 88.971257 0 0 1-35.27282 23.9984z" fill="#0b0204" stroke-width="3.22126198"/>
   <circle id="circle24" cx="32.000923" cy="174.30531" fill="#0b0204" r="7.5055404" stroke-width="3.22126198"/>
   <circle id="circle26" cx="270.82532" cy="174.30531" fill="#0b0204" r="7.5055404" stroke-width="3.22126198"/>
   <path id="path28" d="m143.39217 182.13297c0 0-12.88505-5.57278-21.26033-9.4383l5.54057 9.66379 12.53071 6.08819 2.83471 10.34025z" fill="#0b0204" stroke-width="3.22126198"/>
   <polygon id="polygon30" fill="#0b0204" points="38.99 41.13 38.77 48.63 40.92 45.74" transform="matrix(3.221262 0 0 3.221262 -9.5855724 2)"/>
   <polygon id="polygon32" fill="#0b0204" points="61.04 41.14 59.1 45.75 61.25 48.63" transform="matrix(3.221262 0 0 3.221262 -9.5855724 2)"/>
   <path id="path34" d="m180.82323 172.72689c-8.24643 3.86551-21.26033 9.43829-21.26033 9.43829l.35434 16.75057 2.83471-10.34025 12.53071-6.18483z" fill="#0b0204" stroke-width="3.22126198"/>
   <polygon id="polygon36" fill="#0b0204" points="53.24 69.65 52.93 68.37 47.07 68.37 46.76 69.65 50 72.86" transform="matrix(3.221262 0 0 3.221262 -9.5855724 2)"/>
   <path id="path38" d="m62.763977 89.747177l18.586682 10.114762 3.768877-3.414537-8.246431-19.553061 2.415946-1.96497-2.480371-3.221262c-3.221262 2.254884-6.861288 5.315083-7.956517 6.442524l2.770285 3.221262 1.578418-1.35293 5.089594 11.854244-11.242204-6.442524 1.642843-1.610631-2.931348-2.931348a106.55935 106.55935 0 0 0-8.085368 8.053155l2.995774 2.931348z" fill="#0b0204" stroke-width="3.22126198"/>
   <path id="path40" d="m88.662924 68.905611l7.698816 14.076915-3.221262 2.061608 2.254883 3.640026a126.72445 126.72445 0 0 1 11.532119-6.442524l-1.83612-3.833302-3.22126 1.546206-7.698818-13.980277 3.221262-1.868332-1.900545-3.704451c0 0-9.663786 4.864105-12.530709 7.054563l2.287096 3.221262z" fill="#0b0204" stroke-width="3.22126198"/>
   <path id="path42" d="m110.63193 58.661998l4.38092 15.333207-3.54339 1.513993 1.35293 3.962153a106.52713 106.52713 0 0 1 21.03484-6.055973l-2.67365-11.886457-4.73525 1.127442 1.48178 7.408903-6.95793 1.964969-4.38091-15.462057 3.44675-.966379-1.12745-4.026577a125.62922 125.62922 0 0 0-12.88504 4.284278l1.2885 3.897727z" fill="#0b0204" stroke-width="3.22126198"/>
   <path id="path44" d="m139.6555 68.261359l.22549 4.123215a95.381568 95.381568 0 0 1 10.7268-.450976v-4.155428h-2.86692v-13.948065l10.50131 18.586682 5.41172.61204 1.35293-20.744928 3.22127.547615.48318-3.865515c-5.47614-.86974-9.92148-1.224079-9.92148-1.224079v3.833302l2.02939.289913-.96638 11.274417-9.11617-15.784184c0 0-7.47333-.161063-10.53352.161063l.2577 3.768877h3.22126v16.557287z" fill="#0b0204" stroke-width="3.22126198"/>
   <path id="path46" d="m185.94504 73.544229l-3.70445-1.385143 4.44534-15.397633 3.5756 1.127442 1.15965-3.994365c0 0-7.79545-2.480371-13.56151-3.704451l-.83753 4.026577 3.51118.901954-4.47756 15.462058-3.86551-.708678-.96638 4.026577a101.82409 101.82409 0 0 1 13.40045 3.640026z" fill="#0b0204" stroke-width="3.22126198"/>
   <path id="path48" d="m199.3777 83.948905a8.7940453 8.7940453 0 0 0 6.44253 1.513993 8.6007696 8.6007696 0 0 0  4.76746-4.477554l6.15261-10.759015 2.51259 1.578418 1.96497-3.414538c-2.5448-1.707269-7.69882-4.67083-7.69882-4.67083l-2.06161 3.478963 1.44957.837529-5.57278 9.663786a7.3122648 7.3122648 0 0 1-2.73807 3.221262 2.7380727 2.7380727 0 0 1-2.73808-.225489 3.3823251 3.3823251 0 0 1-1.35293-1.224079 2.6414349 2.6414349 0 0 1-.16106-1.83612 10.308038 10.308038 0 0 1  1.19187-2.931348l5.54057-9.663786 1.67505.837528 2.06161-3.607813a95.735907 95.735907 0 0 0-10.2114-4.799681l-1.7717 3.543388 2.60923 1.159655-5.3473 9.341659a13.658151 13.658151 0 0 0-1.93276 5.28287 5.4117202 5.4117202 0 0 0  1.03081 3.92994 12.627347 12.627347 0 0 0  4.18764 3.221262z" fill="#0b0204" stroke-width="3.22126198"/>
   <path id="path50" d="m221.3145 88.362034l-3.22127-2.512585-5.02516 6.442525 3.22126 2.512584 1.2885-1.642844a5.8304842 5.8304842 0 0 0 2.48037 4.896319 6.957926 6.957926 0 0 0  5.31509 1.578418 7.2478395 7.2478395 0 0 0  4.76746-3.060199 7.0223512 7.0223512 0 0 0  1.54621-4.735255 13.625938 13.625938 0 0 0-1.90055-5.572783l-.54761-.934166c-.48319-.901954-.83753-1.610631-1.06302-2.093821a4.0587901 4.0587901 0 0 1-.38655-1.449568 1.9971825 1.9971825 0 0 1  .45098-1.320717 1.7072689 1.7072689 0 0 1  1.41735-.708678 2.6092222 2.6092222 0 0 1  1.70727.579827 3.221262 3.221262 0 0 1  1.32072 2.126033 4.5419794 4.5419794 0 0 1-.70868 2.834711l2.89914 2.609222 4.44534-5.379507a33.919889 33.919889 0 0 0-3.22126-2.802498l-1.06302 1.385142a4.7996804 4.7996804 0 0 0-.48319-2.544797 5.9915474 5.9915474 0 0 0-1.70727-2.029395 6.442524 6.442524 0 0 0-3.22126-1.320717 6.442524 6.442524 0 0 0-3.22126.515402 6.6357998 6.6357998 0 0 0-2.73807 2.190458 6.0559726 6.0559726 0 0 0-1.32072 4.413129 15.107719 15.107719 0 0 0  2.09382 5.927122 9.921487 9.921487 0 0 1  1.2885 3.221262 2.9313484 2.9313484 0 0 1-.5154 2.126033 2.5770096 2.5770096 0 0 1-3.70445.483189 3.221262 3.221262 0 0 1-1.44957-2.512584 5.3795076 5.3795076 0 0 1  1.2563-3.221262z" fill="#0b0204" stroke-width="3.22126198"/>
   <path id="path52" d="m104.15719 127.62922l.93417-18.97324 21.22812 18.49005v-26.09222h7.18341v29.79667h7.1512v-21.55024h7.1512v-14.366832h7.08678v14.366832h7.11899v21.55024h7.50554v-29.6034h7.24784v26.06001l21.22812-18.45783.80531 18.77996a64.682941 64.682941 0 0 1 19.32758-12.59514 89.357808 89.357808 0 0 0-132.973702 0l1.288505.54762a64.779579 64.779579 0 0 1 17.716937 12.04752z" fill="#ec1c29" stroke-width="3.22126198"/>
   <path id="path54" d="m102.32107 164.54488v0l1.32072-26.96196a57.04855 57.04855 0 0 0-20.326161-15.39763c-1.030804-.48319-2.061608-.90196-3.221262-1.28851a91.387203 91.387203 0 0 0-10.018125 16.91163 89.551084 89.551084 0 0 0-7.924304 33.24342h36.40026z" fill="#ec1c29" stroke-width="3.22126198"/>
   <path id="path56" d="m193.06403 215.34418l-15.13994 14.07692v0l-12.88504 20.19731h-27.28409l-12.88505-20.19731v0l-15.13993-14.07692a64.135327 64.135327 0 0 1-24.93257 18.81217 89.87321 89.87321 0 0 0  66.68012 29.76446 89.647722 89.647722 0 0 0  66.55128-29.76446l-1.32072-.54761a64.747367 64.747367 0 0 1-23.64406-18.26456z" fill="#ec1c29" stroke-width="3.22126198"/>
   <path id="path58" d="m199.31327 137.61513l1.32072 26.92975v0l3.64003 6.44253h36.40026a90.195336 90.195336 0 0 0-17.94243-50.15505 56.951912 56.951912 0 0 0-23.41858 16.78277z" fill="#ec1c29" stroke-width="3.22126198"/>
   <path id="path60" d="m104.60817 210.44786l-10.340251-9.66378 8.794041-12.88505-7.247835-9.66379h-33.533337a90.195336 90.195336 0 0 0 17.910217 50.18727 57.112976 57.112976 0 0 0  24.417165-17.97465z" fill="#ec1c29" stroke-width="3.22126198"/>
   <polygon id="polygon62" fill="#ec1c29" points="51.11 35.51 48.89 35.51 48.88 39.98 51.12 39.98" transform="matrix(3.221262 0 0 3.221262 -9.5855724 2)"/>
   <path id="path64" d="m199.79646 187.96346l8.79405 12.88504-10.34025 9.66379a57.499527 57.499527 0 0 0 21.29254 16.5895l3.22126 1.2885a92.063668 92.063668 0 0 0 9.98592-17.00826 89.100107 89.100107 0 0 0  7.9243-33.30785h-33.53334z" fill="#ec1c29" stroke-width="3.22126198"/>
   <polygon id="polygon66" fill="#d6cfcc" points="59.11 52.99 57.39 56.02 62.3 57.67 64.83 54.26" transform="matrix(3.221262 0 0 3.221262 -9.5855724 2)"/>
   <polygon id="polygon68" fill="#d6cfcc" points="40.89 52.99 42.61 56.02 37.7 57.67 35.17 54.26" transform="matrix(3.221262 0 0 3.221262 -9.5855724 2)"/>
   <polygon id="polygon70" fill="#d6cfcc" points="53.24 69.65 55.79 70.25 53.03 74.64 46.97 74.64 44.2 70.25 46.76 69.65 50 72.86" transform="matrix(3.221262 0 0 3.221262 -9.5855724 2)"/>
   <polygon id="polygon72" fill="#d6cfcc" points="52.62 61.12 52.51 55.92 49.99 56.81 47.49 55.92 47.38 61.12 46.42 64.17 50.04 61.51 53.58 64.17" transform="matrix(3.221262 0 0 3.221262 -9.5855724 2)"/>
   <polygon id="polygon74" fill="#d6cfcc" points="42.62 42.2 49.99 48.63 57.38 42.2" transform="matrix(3.221262 0 0 3.221262 -9.5855724 2)"/>
</svg>
